<svg xmlns="http://www.w3.org/2000/svg" xmlns:xlink="http://www.w3.org/1999/xlink" width="1080" zoomAndPan="magnify" viewBox="0 0 810 809.999993" height="1080" preserveAspectRatio="xMidYMid meet" version="1.0"><path fill="#ff0101" d="M 309.355469 385.101562 C 237.464844 343.59375 202.414062 258.972656 223.898438 178.785156 C 245.386719 98.597656 318.050781 42.839844 401.066406 42.839844 C 484.082031 42.839844 556.746094 98.597656 578.230469 178.785156 C 599.71875 258.972656 564.667969 343.59375 492.773438 385.101562 L 437.550781 289.449219 C 466.152344 272.9375 480.09375 239.273438 471.546875 207.371094 C 463 175.46875 434.089844 153.289062 401.066406 153.289062 C 368.039062 153.289062 339.132812 175.46875 330.582031 207.371094 C 322.035156 239.273438 335.980469 272.9375 364.582031 289.449219 Z M 309.355469 385.101562 " fill-opacity="1" fill-rule="nonzero"/><path fill="#0101ff" d="M 702.128906 429.503906 C 774.019531 471.011719 809.070312 555.632812 787.585938 635.820312 C 766.101562 716.003906 693.433594 771.761719 610.417969 771.761719 C 527.402344 771.761719 454.738281 716.003906 433.253906 635.820312 C 411.765625 555.632812 446.816406 471.011719 518.710938 429.503906 L 573.933594 525.15625 C 545.332031 541.667969 531.390625 575.332031 539.9375 607.234375 C 548.484375 639.132812 577.394531 661.316406 610.417969 661.316406 C 643.445312 661.316406 672.355469 639.132812 680.902344 607.234375 C 689.449219 575.332031 675.503906 541.667969 646.902344 525.15625 Z M 702.128906 429.503906 " fill-opacity="1" fill-rule="nonzero"/><path fill="#01ff01" d="M 379.078125 588.347656 C 379.078125 671.363281 323.320312 744.027344 243.132812 765.511719 C 162.945312 787 78.324219 751.949219 36.820312 680.054688 C -4.6875 608.160156 7.265625 517.351562 65.964844 458.652344 C 124.667969 399.953125 215.476562 387.996094 287.371094 429.503906 L 232.144531 525.15625 C 203.542969 508.640625 167.417969 513.398438 144.066406 536.75 C 120.710938 560.101562 115.957031 596.230469 132.46875 624.832031 C 148.980469 653.433594 182.644531 667.375 214.546875 658.828125 C 246.449219 650.28125 268.628906 621.371094 268.628906 588.347656 Z M 379.078125 588.347656 " fill-opacity="1" fill-rule="nonzero"/></svg>